<?xml version="1.0" standalone="no"?>
<svg xmlns:xlink="http://www.w3.org/1999/xlink" id="wave" style="transform:rotate(0deg); transition: 0.3s" viewBox="0 0 1440 320" version="1.1" xmlns="http://www.w3.org/2000/svg"><defs><linearGradient id="sw-gradient-0" x1="0" x2="0" y1="1" y2="0"><stop stop-color="rgba(236, 72, 153, 1)" offset="0%"/><stop stop-color="rgba(99, 102, 241, 1)" offset="100%"/></linearGradient></defs><path style="transform:translate(0, 0px); opacity:1" fill="url(#sw-gradient-0)" d="M0,224L40,234.7C80,245,160,267,240,234.7C320,203,400,117,480,69.3C560,21,640,11,720,26.7C800,43,880,85,960,128C1040,171,1120,213,1200,202.7C1280,192,1360,128,1440,112C1520,96,1600,128,1680,154.7C1760,181,1840,203,1920,181.3C2000,160,2080,96,2160,101.3C2240,107,2320,181,2400,213.3C2480,245,2560,235,2640,213.3C2720,192,2800,160,2880,138.7C2960,117,3040,107,3120,101.3C3200,96,3280,96,3360,85.3C3440,75,3520,53,3600,37.3C3680,21,3760,11,3840,32C3920,53,4000,107,4080,138.7C4160,171,4240,181,4320,160C4400,139,4480,85,4560,90.7C4640,96,4720,160,4800,170.7C4880,181,4960,139,5040,106.7C5120,75,5200,53,5280,69.3C5360,85,5440,139,5520,144C5600,149,5680,107,5720,85.3L5760,64L5760,320L5720,320C5680,320,5600,320,5520,320C5440,320,5360,320,5280,320C5200,320,5120,320,5040,320C4960,320,4880,320,4800,320C4720,320,4640,320,4560,320C4480,320,4400,320,4320,320C4240,320,4160,320,4080,320C4000,320,3920,320,3840,320C3760,320,3680,320,3600,320C3520,320,3440,320,3360,320C3280,320,3200,320,3120,320C3040,320,2960,320,2880,320C2800,320,2720,320,2640,320C2560,320,2480,320,2400,320C2320,320,2240,320,2160,320C2080,320,2000,320,1920,320C1840,320,1760,320,1680,320C1600,320,1520,320,1440,320C1360,320,1280,320,1200,320C1120,320,1040,320,960,320C880,320,800,320,720,320C640,320,560,320,480,320C400,320,320,320,240,320C160,320,80,320,40,320L0,320Z"/><defs><linearGradient id="sw-gradient-1" x1="0" x2="0" y1="1" y2="0"><stop stop-color="rgba(236, 72, 153, 1)" offset="0%"/><stop stop-color="rgba(99, 102, 241, 1)" offset="100%"/></linearGradient></defs><path style="transform:translate(0, 50px); opacity:0.9" fill="url(#sw-gradient-1)" d="M0,32L40,26.7C80,21,160,11,240,48C320,85,400,171,480,202.7C560,235,640,213,720,186.7C800,160,880,128,960,101.3C1040,75,1120,53,1200,58.7C1280,64,1360,96,1440,101.3C1520,107,1600,85,1680,96C1760,107,1840,149,1920,138.7C2000,128,2080,64,2160,69.3C2240,75,2320,149,2400,176C2480,203,2560,181,2640,144C2720,107,2800,53,2880,32C2960,11,3040,21,3120,69.3C3200,117,3280,203,3360,234.7C3440,267,3520,245,3600,218.7C3680,192,3760,160,3840,133.3C3920,107,4000,85,4080,80C4160,75,4240,85,4320,80C4400,75,4480,53,4560,53.3C4640,53,4720,75,4800,69.3C4880,64,4960,32,5040,58.7C5120,85,5200,171,5280,192C5360,213,5440,171,5520,128C5600,85,5680,43,5720,21.3L5760,0L5760,320L5720,320C5680,320,5600,320,5520,320C5440,320,5360,320,5280,320C5200,320,5120,320,5040,320C4960,320,4880,320,4800,320C4720,320,4640,320,4560,320C4480,320,4400,320,4320,320C4240,320,4160,320,4080,320C4000,320,3920,320,3840,320C3760,320,3680,320,3600,320C3520,320,3440,320,3360,320C3280,320,3200,320,3120,320C3040,320,2960,320,2880,320C2800,320,2720,320,2640,320C2560,320,2480,320,2400,320C2320,320,2240,320,2160,320C2080,320,2000,320,1920,320C1840,320,1760,320,1680,320C1600,320,1520,320,1440,320C1360,320,1280,320,1200,320C1120,320,1040,320,960,320C880,320,800,320,720,320C640,320,560,320,480,320C400,320,320,320,240,320C160,320,80,320,40,320L0,320Z"/></svg>